<?xml version="1.0" encoding="iso-8859-1"?>
<!-- Generator: Adobe Illustrator 21.0.0, SVG Export Plug-In . SVG Version: 6.00 Build 0)  -->
<svg xmlns="http://www.w3.org/2000/svg" xmlns:xlink="http://www.w3.org/1999/xlink" version="1.1" id="Capa_1" x="0px" y="0px" viewBox="0 0 511 511" style="enable-background:new 0 0 511 511;" xml:space="preserve" width="512" height="512">
<g>
	<g>
		<g>
			<path style="fill:#69BFF5;" d="M391.5,147.5c-8.809,0-17.38,1.021-25.603,2.943c1.049-6.158,1.603-12.486,1.603-18.943     c0-61.856-50.144-112-112-112c-56.535,0-103.279,41.892-110.903,96.326c-3.006-0.211-6.038-0.326-9.097-0.326     c-70.692,0-128,57.308-128,128s57.308,128,128,128h256c61.856,0,112-50.144,112-112S453.356,147.5,391.5,147.5z"/>
			<g>
				<path style="fill:#44AFF2;" d="M407.5,339.5h-256c-70.692,0-128-57.308-128-128c0-14.193,2.315-27.844,6.579-40.603      C15.843,191.528,7.5,216.538,7.5,243.5c0,70.692,57.308,128,128,128h256c50.231,0,92.738-33.068,106.941-78.623      C478.107,321.113,444.953,339.5,407.5,339.5z"/>
			</g>
		</g>
		<g>
			<g>
				<polygon style="fill:#F5E063;" points="223.5,419.5 223.5,291.5 127.5,291.5 127.5,419.5 95.5,419.5 175.5,491.5 255.5,419.5           "/>
			</g>
			<g>
				<polygon style="fill:#F5E063;" points="287.5,299.5 287.5,427.5 383.5,427.5 383.5,299.5 415.5,299.5 335.5,227.5 255.5,299.5           "/>
			</g>
		</g>
	</g>
	<g>
		<path d="M391.5,140c-5.659,0-11.31,0.398-16.893,1.189c0.261-3.227,0.393-6.464,0.393-9.689c0-35.602-15.709-69.095-43.1-91.891    c-3.184-2.65-7.912-2.218-10.563,0.967c-2.649,3.184-2.217,7.913,0.967,10.563C346.261,71.076,360,100.367,360,131.5    c0,5.907-0.504,11.856-1.497,17.683c-0.885,5.195,3.968,9.767,9.102,8.563c7.794-1.822,15.833-2.746,23.896-2.746    c57.621,0,104.5,46.879,104.5,104.5S449.121,364,391.5,364H391v-57h24.5c6.725,0,10.02-8.57,5.018-13.075l-80-72    c-2.854-2.566-7.182-2.566-10.035,0l-80,72C245.479,298.429,248.775,307,255.5,307H280v57h-49v-72.5c0-4.143-3.358-7.5-7.5-7.5    s-7.5,3.357-7.5,7.5v128c0,4.143,3.358,7.5,7.5,7.5h12.455L175.5,481.41L115.045,427H127.5c4.142,0,7.5-3.357,7.5-7.5v-128    c0-4.143-3.358-7.5-7.5-7.5s-7.5,3.357-7.5,7.5v71.507C59.819,355.353,15,304.774,15,243.5C15,177.056,69.056,123,135.5,123    c2.792,0,5.675,0.104,8.57,0.308c3.934,0.287,7.408-2.538,7.955-6.441C159.201,65.634,203.686,27,255.5,27    c12.939,0,25.564,2.334,37.522,6.937c3.865,1.49,8.206-0.44,9.693-4.305c1.488-3.866-0.439-8.206-4.305-9.693    C284.727,14.671,270.289,12,255.5,12c-28.996,0-56.958,10.516-78.737,29.61c-19.842,17.396-33.329,40.779-38.447,66.42    c-0.945-0.021-1.885-0.03-2.816-0.03C60.785,108,0,168.785,0,243.5c0,34.063,12.688,66.622,35.726,91.682    C57.873,359.272,87.692,374.438,120,378.12V412H95.5c-6.725,0-10.021,8.571-5.017,13.075l80,72c2.815,2.534,7.219,2.534,10.034,0    l80-72C265.52,420.57,262.225,412,255.5,412H231v-33h49v48.5c0,4.143,3.357,7.5,7.5,7.5s7.5-3.357,7.5-7.5v-128    c0-4.143-3.357-7.5-7.5-7.5h-12.455l60.455-54.41L395.955,292H383.5c-4.143,0-7.5,3.357-7.5,7.5v128c0,4.143,3.357,7.5,7.5,7.5    s7.5-3.357,7.5-7.5V379h0.5c65.893,0,119.5-53.607,119.5-119.5S457.393,140,391.5,140z"/>
		<path d="M223.5,252h-96c-4.142,0-7.5,3.357-7.5,7.5s3.358,7.5,7.5,7.5h96c4.142,0,7.5-3.357,7.5-7.5S227.642,252,223.5,252z"/>
		<path d="M223.5,220h-96c-4.142,0-7.5,3.357-7.5,7.5s3.358,7.5,7.5,7.5h96c4.142,0,7.5-3.357,7.5-7.5S227.642,220,223.5,220z"/>
		<path d="M383.5,452h-96c-4.143,0-7.5,3.357-7.5,7.5s3.357,7.5,7.5,7.5h96c4.143,0,7.5-3.357,7.5-7.5S387.643,452,383.5,452z"/>
		<path d="M383.5,484h-96c-4.143,0-7.5,3.357-7.5,7.5s3.357,7.5,7.5,7.5h96c4.143,0,7.5-3.357,7.5-7.5S387.643,484,383.5,484z"/>
	</g>
</g>















</svg>
